<?xml version="1.0" encoding="utf-8"?>
<svg id="Layer_1" data-name="Layer 1" xmlns="http://www.w3.org/2000/svg" viewBox="2.486 172.805 488.19 177.389" xmlns:bx="https://boxy-svg.com" width="500px" height="200px" preserveAspectRatio="none"><defs><style>
      .cls-1, .cls-2 {
        fill: none;
      }

      .cls-2 {
        stroke: #0086c4;
        stroke-miterlimit: 4;
        stroke-width: 1px;
      }

      .cls-3 {
        fill: #ff914d;
      }

      .cls-4 {
        clip-path: url(#clippath-1);
      }

      .cls-5 {
        clip-path: url(#clippath-3);
      }

      .cls-6 {
        clip-path: url(#clippath-2);
      }

      .cls-7 {
        fill: #fff;
      }

      .cls-8 {
        fill: #0086c4;
      }

      .cls-9 {
        clip-path: url(#clippath);
      }
    </style><clipPath id="clippath"><rect class="cls-1" x="100" y="200.69" width="98.67" height="77.97"/></clipPath><clipPath id="clippath-1"><rect class="cls-1" x="384.61" y="249.66" width="16.14" height="16.14"/></clipPath><clipPath id="clippath-2"><circle class="cls-1" cx="392.68" cy="257.73" r="8.07"/></clipPath><clipPath id="clippath-3"><rect class="cls-1" x="387.16" y="252.21" width="11" height="11"/></clipPath><bx:export><bx:file format="svg"/></bx:export></defs><g class="cls-9" style="" transform="matrix(1.56302, 0, 0, 1.594954, -143.497937, -134.897596)"><path class="cls-3" d="M102.03,257.6h16.3c.93,0,1.69-.63,1.96-1.49,3.4-10.86,6.79-21.73,10.19-32.6h-3.93c4.07,11.32,8.15,22.64,12.22,33.96.65,1.8,3.41,2.08,3.93,0,4.53-17.89,9.06-35.77,13.58-53.66h-3.93c4.3,24.45,8.6,48.9,12.91,73.35.3,1.71,2.98,2.02,3.72.48,3.27-6.76,6.54-13.52,9.81-20.28.82-1.68-2.53.23-.33.23h17.96c2.63,0,2.63-4.07,0-4.07h-19.02c-.68,0-1.46.38-1.76,1.01-3.4,7.02-6.79,14.04-10.19,21.05,1.24.17,2.48.33,3.72.49l-12.91-73.36c-.36-2.03-3.46-1.86-3.93,0-4.53,17.89-9.05,35.78-13.58,53.66h3.93c-4.08-11.32-8.15-22.64-12.23-33.96-.67-1.88-3.3-2-3.93,0-3.4,10.87-6.79,21.74-10.19,32.6.65-.5,1.31-.99,1.96-1.49h-16.3c-2.63,0-2.63,4.07,0,4.07Z"/></g><path class="cls-3" d="M 206.197 266.265 L 177.468 266.265 C 177.468 269.104 178.358 271.209 180.172 272.581 C 181.97 273.937 183.923 274.607 186.033 274.607 C 188.252 274.607 189.988 274.304 191.27 273.714 C 192.551 273.107 194.02 271.911 195.662 270.125 L 205.555 275.181 C 201.428 282.231 194.584 285.756 185.003 285.756 C 179.031 285.756 173.904 283.682 169.638 279.503 C 165.385 275.309 163.261 270.285 163.261 264.383 C 163.261 258.481 165.385 253.458 169.638 249.264 C 173.904 245.052 179.031 242.947 185.003 242.947 C 191.27 242.947 196.38 244.797 200.304 248.498 C 204.258 252.198 206.228 257.493 206.228 264.383 C 206.228 265.34 206.197 265.962 206.166 266.282 L 206.197 266.265 Z M 177.859 258.562 L 192.91 258.562 C 192.598 256.456 191.786 254.845 190.472 253.713 C 189.174 252.581 187.487 252.022 185.424 252.022 C 183.157 252.022 181.36 252.643 180.016 253.857 C 178.671 255.053 177.952 256.631 177.859 258.577 L 177.859 258.562 Z" style=""/><path class="cls-3" d="M 212.729 279.566 C 209.04 275.436 207.196 270.364 207.196 264.383 C 207.196 258.403 209.04 253.346 212.729 249.199 C 216.449 245.035 221.154 242.947 226.859 242.947 C 232.111 242.947 236.44 244.638 239.817 248.003 L 239.817 216.805 L 253.493 216.805 L 253.493 284.558 L 239.974 284.558 L 239.974 279.965 L 239.817 279.965 C 236.426 283.825 232.111 285.756 226.859 285.756 C 221.139 285.756 216.435 283.699 212.729 279.566 Z M 224.358 257.541 C 222.577 259.311 221.686 261.593 221.686 264.383 C 221.686 267.174 222.53 269.455 224.233 271.225 C 225.937 272.979 228.188 273.857 230.971 273.857 C 233.752 273.857 235.831 272.964 237.55 271.161 C 239.285 269.359 240.16 267.111 240.16 264.383 C 240.16 261.656 239.269 259.311 237.489 257.541 C 235.706 255.739 233.534 254.845 230.971 254.845 C 228.407 254.845 226.14 255.739 224.358 257.541 Z" style=""/><path class="cls-3" d="M 300.901 249.199 C 304.621 253.346 306.463 258.403 306.463 264.383 C 306.463 270.364 304.604 275.436 300.901 279.566 C 297.181 283.682 292.475 285.756 286.771 285.756 C 281.517 285.756 277.188 283.825 273.812 279.965 L 273.656 279.965 L 273.656 284.558 L 260.137 284.558 L 260.137 216.805 L 273.812 216.805 L 273.812 248.003 C 277.204 244.638 281.517 242.947 286.771 242.947 C 292.475 242.947 297.195 245.035 300.901 249.199 Z M 289.412 271.225 C 291.1 269.455 291.96 267.174 291.96 264.383 C 291.96 261.593 291.069 259.311 289.286 257.541 C 287.521 255.739 285.332 254.845 282.707 254.845 C 280.081 254.845 277.939 255.739 276.157 257.541 C 274.376 259.311 273.484 261.593 273.484 264.383 C 273.484 267.174 274.344 269.375 276.063 271.161 C 277.797 272.964 280.017 273.857 282.707 273.857 C 285.395 273.857 287.724 272.979 289.412 271.225 Z" style=""/><path class="cls-3" d="M 310.231 284.542 L 310.231 216.789 L 323.907 216.789 L 323.907 284.542 L 310.231 284.542 Z" style=""/><path class="cls-3" d="M 370.625 266.265 L 341.898 266.265 C 341.898 269.104 342.788 271.209 344.601 272.581 C 346.399 273.937 348.353 274.607 350.463 274.607 C 352.682 274.607 354.417 274.304 355.7 273.714 C 356.98 273.107 358.45 271.911 360.091 270.125 L 369.985 275.181 C 365.858 282.231 359.014 285.756 349.431 285.756 C 343.461 285.756 338.335 283.682 334.067 279.503 C 329.815 275.309 327.689 270.285 327.689 264.383 C 327.689 258.481 329.815 253.458 334.067 249.264 C 338.335 245.052 343.461 242.947 349.431 242.947 C 355.7 242.947 360.81 244.797 364.733 248.498 C 368.688 252.198 370.657 257.493 370.657 264.383 C 370.657 265.34 370.625 265.962 370.595 266.282 L 370.625 266.265 Z M 342.304 258.562 L 357.356 258.562 C 357.043 256.456 356.23 254.845 354.918 253.713 C 353.62 252.581 351.932 252.022 349.87 252.022 C 347.603 252.022 345.806 252.643 344.461 253.857 C 343.116 255.053 342.399 256.631 342.304 258.577 L 342.304 258.562 Z" style=""/><path class="cls-3" d="M 374.472 284.542 L 374.472 244.143 L 388.147 244.143 L 388.147 248.402 L 388.303 248.402 C 391.837 244.765 395.618 242.947 399.635 242.947 C 401.59 242.947 403.527 243.218 405.466 243.744 C 407.388 244.272 409.248 245.1 411.03 246.2 C 412.811 247.284 414.25 248.848 415.36 250.889 C 416.47 252.916 417.016 255.26 417.016 257.939 L 417.016 284.558 L 403.34 284.558 L 403.34 261.703 C 403.34 259.63 402.668 257.796 401.355 256.218 C 400.058 254.622 398.338 253.824 396.244 253.824 C 394.15 253.824 392.305 254.654 390.648 256.28 C 388.976 257.908 388.147 259.709 388.147 261.703 L 388.147 284.558 L 374.472 284.558 L 374.472 284.542 Z" style=""/><path class="cls-3" d="M 471.034 222.292 L 471.034 285.691 L 465.329 285.691 L 465.329 276.824 C 463.547 279.837 461.188 282.135 458.264 283.73 C 455.342 285.324 452.028 286.122 448.339 286.122 C 444.213 286.122 440.462 285.166 437.1 283.235 C 433.756 281.289 431.13 278.578 429.223 275.102 C 427.333 271.624 426.395 267.669 426.395 263.234 C 426.395 258.8 427.333 254.829 429.223 251.368 C 431.13 247.892 433.756 245.212 437.1 243.298 C 440.462 241.369 444.213 240.41 448.339 240.41 C 451.903 240.41 455.107 241.176 457.984 242.708 C 460.859 244.223 463.235 246.425 465.08 249.327 L 465.08 222.308 L 471.034 222.308 L 471.034 222.292 Z M 448.839 280.747 C 451.919 280.747 454.701 280.03 457.17 278.594 C 459.656 277.126 461.609 275.069 463.032 272.374 C 464.469 269.693 465.188 266.648 465.188 263.234 C 465.188 259.822 464.469 256.775 463.032 254.095 C 461.609 251.417 459.656 249.36 457.17 247.908 C 454.701 246.441 451.919 245.706 448.839 245.706 C 445.761 245.706 442.9 246.441 440.399 247.908 C 437.929 249.36 435.976 251.417 434.538 254.095 C 433.115 256.775 432.428 259.822 432.428 263.234 C 432.428 266.648 433.131 269.693 434.538 272.374 C 435.976 275.054 437.929 277.126 440.399 278.594 C 442.884 280.045 445.713 280.747 448.839 280.747 Z" style=""/><path class="cls-8" d="M 172.153 298.674 C 172.889 298.674 173.56 298.85 174.139 299.201 C 174.749 299.535 175.216 300.014 175.577 300.637 C 175.921 301.258 176.093 301.959 176.093 302.757 C 176.093 303.556 175.921 304.273 175.577 304.878 C 175.233 305.501 174.765 305.995 174.17 306.346 C 173.575 306.68 172.903 306.841 172.153 306.841 C 171.513 306.841 170.95 306.713 170.435 306.442 C 169.919 306.171 169.496 305.772 169.169 305.245 L 169.169 309.728 L 168.12 309.728 L 168.12 298.722 L 169.138 298.722 L 169.138 300.317 C 169.466 299.79 169.888 299.377 170.403 299.089 C 170.918 298.802 171.513 298.66 172.169 298.66 L 172.153 298.674 Z M 172.092 305.884 C 172.622 305.884 173.138 305.772 173.592 305.518 C 174.045 305.245 174.389 304.878 174.638 304.417 C 174.906 303.938 175.03 303.381 175.03 302.757 C 175.03 302.136 174.906 301.592 174.638 301.131 C 174.389 300.668 174.045 300.301 173.592 300.031 C 173.138 299.76 172.638 299.631 172.092 299.631 C 171.528 299.631 171.013 299.76 170.56 300.031 C 170.123 300.301 169.779 300.668 169.512 301.131 C 169.262 301.592 169.153 302.152 169.153 302.757 C 169.153 303.365 169.262 303.938 169.512 304.417 C 169.779 304.878 170.123 305.245 170.56 305.518 C 171.013 305.772 171.513 305.884 172.092 305.884 Z" style=""/><path class="cls-8" d="M 185.283 298.674 C 186.268 298.674 187.049 298.978 187.628 299.568 C 188.222 300.142 188.503 301.003 188.503 302.12 L 188.503 306.776 L 187.456 306.776 L 187.456 302.232 C 187.456 301.386 187.237 300.764 186.831 300.334 C 186.408 299.887 185.83 299.664 185.064 299.664 C 184.221 299.664 183.548 299.918 183.048 300.43 C 182.548 300.939 182.298 301.657 182.298 302.55 L 182.298 306.776 L 181.251 306.776 L 181.251 295.453 L 182.298 295.453 L 182.298 300.142 C 182.595 299.68 183 299.329 183.502 299.073 C 184.002 298.802 184.58 298.674 185.268 298.674 L 185.283 298.674 Z" style=""/><path class="cls-8" d="M 197.162 298.674 C 198.209 298.674 198.991 298.946 199.539 299.472 C 200.069 299.998 200.35 300.78 200.35 301.801 L 200.35 306.793 L 199.335 306.793 L 199.335 305.534 C 199.085 305.963 198.726 306.283 198.256 306.538 C 197.804 306.76 197.256 306.872 196.63 306.872 C 195.74 306.872 195.037 306.664 194.521 306.235 C 194.005 305.821 193.739 305.261 193.739 304.544 C 193.739 303.826 193.974 303.3 194.459 302.886 C 194.958 302.47 195.74 302.248 196.802 302.248 L 199.304 302.248 L 199.304 301.784 C 199.304 301.083 199.101 300.54 198.71 300.189 C 198.334 299.839 197.787 299.664 197.053 299.664 C 196.552 299.664 196.068 299.76 195.615 299.935 C 195.162 300.094 194.756 300.317 194.412 300.604 L 193.958 299.806 C 194.349 299.456 194.817 299.185 195.395 299.01 C 195.959 298.802 196.537 298.706 197.162 298.706 L 197.162 298.674 Z M 196.802 306.027 C 197.396 306.027 197.897 305.884 198.334 305.596 C 198.772 305.309 199.085 304.894 199.319 304.369 L 199.319 303.077 L 196.849 303.077 C 195.506 303.077 194.834 303.556 194.834 304.511 C 194.834 304.974 195.006 305.357 195.349 305.644 C 195.692 305.917 196.177 306.043 196.818 306.043 L 196.802 306.027 Z" style=""/><path class="cls-8" d="M 207.275 300.301 C 207.509 299.775 207.884 299.377 208.384 299.105 C 208.885 298.818 209.494 298.674 210.214 298.674 L 210.214 299.744 L 209.979 299.712 C 209.136 299.712 208.462 299.983 207.994 300.508 C 207.54 301.02 207.305 301.753 207.305 302.709 L 207.305 306.793 L 206.259 306.793 L 206.259 298.753 L 207.275 298.753 L 207.275 300.317 L 207.275 300.301 Z" style=""/><path class="cls-8" d="M 225.077 298.674 C 226.078 298.674 226.859 298.978 227.423 299.568 C 227.985 300.142 228.266 301.003 228.266 302.12 L 228.266 306.776 L 227.188 306.776 L 227.188 302.232 C 227.188 301.386 226.984 300.764 226.594 300.334 C 226.202 299.887 225.655 299.664 224.937 299.664 C 224.109 299.664 223.452 299.918 222.983 300.43 C 222.53 300.939 222.296 301.657 222.296 302.55 L 222.296 306.776 L 221.217 306.776 L 221.217 302.232 C 221.217 301.386 221.013 300.764 220.624 300.334 C 220.232 299.887 219.67 299.664 218.934 299.664 C 218.122 299.664 217.482 299.918 217.013 300.43 C 216.528 300.939 216.294 301.657 216.294 302.55 L 216.294 306.776 L 215.246 306.776 L 215.246 298.738 L 216.263 298.738 L 216.263 300.205 C 216.543 299.727 216.934 299.345 217.434 299.073 C 217.935 298.802 218.513 298.674 219.154 298.674 C 219.795 298.674 220.373 298.818 220.841 299.105 C 221.342 299.393 221.702 299.822 221.952 300.366 C 222.233 299.839 222.64 299.423 223.187 299.136 C 223.718 298.834 224.344 298.674 225.046 298.674 L 225.077 298.674 Z" style=""/><path class="cls-8" d="M 236.911 298.674 C 237.957 298.674 238.739 298.946 239.285 299.472 C 239.817 299.998 240.098 300.78 240.098 301.801 L 240.098 306.793 L 239.082 306.793 L 239.082 305.534 C 238.832 305.963 238.473 306.283 238.004 306.538 C 237.55 306.76 237.004 306.872 236.378 306.872 C 235.487 306.872 234.784 306.664 234.268 306.235 C 233.752 305.821 233.487 305.261 233.487 304.544 C 233.487 303.826 233.721 303.3 234.206 302.886 C 234.706 302.47 235.487 302.248 236.55 302.248 L 239.052 302.248 L 239.052 301.784 C 239.052 301.083 238.848 300.54 238.456 300.189 C 238.082 299.839 237.534 299.664 236.8 299.664 C 236.299 299.664 235.816 299.76 235.362 299.935 C 234.908 300.094 234.502 300.317 234.158 300.604 L 233.706 299.806 C 234.097 299.456 234.564 299.185 235.143 299.01 C 235.706 298.802 236.284 298.706 236.911 298.706 L 236.911 298.674 Z M 236.55 306.027 C 237.144 306.027 237.644 305.884 238.082 305.596 C 238.519 305.309 238.832 304.894 239.066 304.369 L 239.066 303.077 L 236.598 303.077 C 235.253 303.077 234.58 303.556 234.58 304.511 C 234.58 304.974 234.753 305.357 235.097 305.644 C 235.441 305.917 235.925 306.043 236.566 306.043 L 236.55 306.027 Z" style=""/><path class="cls-8" d="M 249.273 306.857 C 248.492 306.857 247.788 306.697 247.163 306.362 C 246.553 306.011 246.068 305.518 245.724 304.894 C 245.381 304.257 245.209 303.556 245.209 302.774 C 245.209 301.992 245.381 301.306 245.724 300.684 C 246.068 300.047 246.553 299.552 247.163 299.217 C 247.788 298.866 248.492 298.69 249.273 298.69 C 249.945 298.69 250.538 298.834 251.071 299.121 C 251.602 299.393 252.056 299.775 252.369 300.285 L 251.555 300.845 C 251.29 300.446 250.945 300.142 250.538 299.951 C 250.149 299.744 249.727 299.648 249.273 299.648 C 248.71 299.648 248.195 299.775 247.741 300.047 C 247.289 300.301 246.929 300.668 246.664 301.147 C 246.397 301.609 246.272 302.167 246.272 302.774 C 246.272 303.381 246.397 303.954 246.664 304.433 C 246.929 304.894 247.289 305.261 247.741 305.534 C 248.195 305.788 248.694 305.901 249.273 305.901 C 249.727 305.901 250.149 305.821 250.538 305.628 C 250.945 305.422 251.29 305.135 251.555 304.736 L 252.369 305.261 C 252.04 305.788 251.602 306.187 251.071 306.458 C 250.555 306.729 249.945 306.857 249.273 306.857 Z" style=""/><path class="cls-8" d="M 264.294 303.092 L 257.713 303.092 C 257.776 303.938 258.089 304.607 258.652 305.119 C 259.213 305.628 259.933 305.884 260.808 305.884 C 261.309 305.884 261.746 305.805 262.137 305.613 C 262.543 305.438 262.903 305.182 263.216 304.847 L 263.84 305.55 C 263.465 305.979 263.028 306.298 262.511 306.506 C 261.997 306.729 261.417 306.841 260.793 306.841 C 259.981 306.841 259.276 306.68 258.635 306.346 C 257.995 305.995 257.51 305.501 257.167 304.878 C 256.822 304.241 256.65 303.539 256.65 302.757 C 256.65 301.975 256.807 301.29 257.135 300.668 C 257.479 300.031 257.948 299.535 258.542 299.201 C 259.135 298.85 259.777 298.674 260.495 298.674 C 261.214 298.674 261.887 298.85 262.45 299.201 C 263.044 299.535 263.497 300.014 263.825 300.637 C 264.169 301.258 264.34 301.959 264.34 302.757 L 264.31 303.092 L 264.294 303.092 Z M 260.48 299.615 C 259.713 299.615 259.073 299.871 258.557 300.381 C 258.057 300.875 257.776 301.514 257.713 302.311 L 263.278 302.311 C 263.216 301.514 262.917 300.875 262.403 300.381 C 261.902 299.871 261.261 299.615 260.48 299.615 Z" style=""/><path class="cls-8" d="M 276.595 298.738 L 276.595 306.776 L 275.547 306.776 L 275.547 305.309 C 275.267 305.805 274.875 306.171 274.376 306.442 C 273.891 306.713 273.343 306.841 272.718 306.841 C 271.687 306.841 270.873 306.554 270.28 305.979 C 269.686 305.373 269.405 304.511 269.405 303.381 L 269.405 298.722 L 270.484 298.722 L 270.484 303.269 C 270.484 304.112 270.686 304.752 271.108 305.198 C 271.515 305.644 272.108 305.868 272.875 305.868 C 273.703 305.868 274.344 305.613 274.828 305.102 C 275.298 304.576 275.547 303.858 275.547 302.949 L 275.547 298.722 L 276.626 298.722 L 276.595 298.738 Z" style=""/><path class="cls-8" d="M 286.723 306.283 C 286.52 306.49 286.27 306.634 285.973 306.713 C 285.692 306.793 285.379 306.841 285.066 306.841 C 284.331 306.841 283.753 306.634 283.347 306.235 C 282.956 305.821 282.753 305.23 282.753 304.511 L 282.753 299.664 L 281.346 299.664 L 281.346 298.738 L 282.753 298.738 L 282.753 296.983 L 283.832 296.983 L 283.832 298.738 L 286.207 298.738 L 286.207 299.664 L 283.832 299.664 L 283.832 304.449 C 283.832 304.943 283.941 305.309 284.159 305.55 C 284.394 305.805 284.754 305.917 285.207 305.917 C 285.425 305.917 285.629 305.884 285.832 305.821 C 286.051 305.756 286.223 305.66 286.348 305.518 L 286.738 306.283 L 286.723 306.283 Z" style=""/><path class="cls-8" d="M 291.678 298.738 L 292.725 298.738 L 292.725 306.776 L 291.678 306.776 L 291.678 298.738 Z M 292.194 296.983 C 291.975 296.983 291.787 296.904 291.647 296.745 C 291.49 296.6 291.413 296.411 291.413 296.218 C 291.413 295.995 291.49 295.819 291.647 295.692 C 291.787 295.549 291.975 295.453 292.194 295.453 C 292.412 295.453 292.6 295.533 292.741 295.692 C 292.881 295.819 292.976 295.995 292.976 296.186 C 292.976 296.411 292.897 296.6 292.741 296.745 C 292.584 296.904 292.397 296.983 292.194 296.983 Z" style=""/><path class="cls-8" d="M 301.963 306.857 C 301.181 306.857 300.478 306.697 299.852 306.362 C 299.243 306.011 298.758 305.518 298.414 304.894 C 298.07 304.257 297.898 303.556 297.898 302.774 C 297.898 301.992 298.07 301.306 298.414 300.684 C 298.758 300.047 299.243 299.552 299.852 299.217 C 300.478 298.866 301.181 298.69 301.963 298.69 C 302.635 298.69 303.228 298.834 303.76 299.121 C 304.292 299.393 304.745 299.775 305.058 300.285 L 304.245 300.845 C 303.979 300.446 303.635 300.142 303.228 299.951 C 302.838 299.744 302.416 299.648 301.963 299.648 C 301.4 299.648 300.884 299.775 300.43 300.047 C 299.979 300.301 299.618 300.668 299.352 301.147 C 299.087 301.609 298.961 302.167 298.961 302.774 C 298.961 303.381 299.087 303.954 299.352 304.433 C 299.618 304.894 299.979 305.261 300.43 305.534 C 300.884 305.788 301.384 305.901 301.963 305.901 C 302.416 305.901 302.838 305.821 303.228 305.628 C 303.635 305.422 303.979 305.135 304.245 304.736 L 305.058 305.261 C 304.729 305.788 304.292 306.187 303.76 306.458 C 303.244 306.729 302.635 306.857 301.963 306.857 Z" style=""/><path class="cls-8" d="M 312.888 298.674 C 313.935 298.674 314.717 298.946 315.264 299.472 C 315.795 299.998 316.077 300.78 316.077 301.801 L 316.077 306.793 L 315.061 306.793 L 315.061 305.534 C 314.811 305.963 314.451 306.283 313.982 306.538 C 313.528 306.76 312.981 306.872 312.357 306.872 C 311.465 306.872 310.763 306.664 310.247 306.235 C 309.732 305.821 309.465 305.261 309.465 304.544 C 309.465 303.826 309.7 303.3 310.183 302.886 C 310.684 302.47 311.465 302.248 312.528 302.248 L 315.029 302.248 L 315.029 301.784 C 315.029 301.083 314.825 300.54 314.435 300.189 C 314.061 299.839 313.513 299.664 312.778 299.664 C 312.278 299.664 311.793 299.76 311.341 299.935 C 310.887 300.094 310.482 300.317 310.137 300.604 L 309.684 299.806 C 310.075 299.456 310.543 299.185 311.121 299.01 C 311.685 298.802 312.263 298.706 312.888 298.706 L 312.888 298.674 Z M 312.528 306.027 C 313.122 306.027 313.623 305.884 314.061 305.596 C 314.498 305.309 314.811 304.894 315.045 304.369 L 315.045 303.077 L 312.575 303.077 C 311.232 303.077 310.559 303.556 310.559 304.511 C 310.559 304.974 310.731 305.357 311.075 305.644 C 311.419 305.917 311.903 306.043 312.544 306.043 L 312.528 306.027 Z" style=""/><path class="cls-8" d="M 321.985 295.453 L 323.032 295.453 L 323.032 306.776 L 321.985 306.776 L 321.985 295.453 Z" style=""/><path class="cls-8" d="M 331.112 306.857 C 330.472 306.857 329.877 306.776 329.284 306.586 C 328.69 306.377 328.236 306.139 327.908 305.852 L 328.393 305.023 C 328.721 305.293 329.127 305.518 329.628 305.692 C 330.128 305.852 330.644 305.931 331.191 305.931 C 331.91 305.931 332.441 305.821 332.785 305.596 C 333.129 305.357 333.301 305.023 333.301 304.592 C 333.301 304.305 333.207 304.082 333.004 303.922 C 332.802 303.748 332.551 303.619 332.254 303.523 C 331.973 303.443 331.581 303.348 331.112 303.252 C 330.472 303.14 329.972 303.013 329.581 302.886 C 329.191 302.757 328.847 302.55 328.565 302.248 C 328.3 301.944 328.174 301.514 328.174 300.955 C 328.174 300.285 328.441 299.744 328.986 299.329 C 329.519 298.882 330.284 298.66 331.27 298.66 C 331.784 298.66 332.301 298.738 332.802 298.898 C 333.317 299.026 333.738 299.217 334.067 299.423 L 333.613 300.285 C 332.957 299.822 332.176 299.584 331.27 299.584 C 330.597 299.584 330.081 299.712 329.737 299.951 C 329.394 300.205 329.222 300.508 329.222 300.907 C 329.222 301.226 329.315 301.466 329.519 301.673 C 329.721 301.849 329.956 301.992 330.238 302.071 C 330.534 302.136 330.941 302.232 331.441 302.342 C 332.066 302.454 332.567 302.583 332.942 302.709 C 333.332 302.821 333.661 303.028 333.926 303.348 C 334.209 303.635 334.348 304.034 334.348 304.544 C 334.348 305.261 334.051 305.821 333.473 306.235 C 332.911 306.634 332.113 306.841 331.098 306.841 L 331.112 306.857 Z" style=""/><path class="cls-2" d="M 348.134 307.622 L 474.895 306.618" style=""/><g class="cls-4" style="" transform="matrix(1.56302, 0, 0, 1.594954, -143.497937, -134.897596)"><g class="cls-6"><path class="cls-7" d="M384.61,249.66h16.14v16.14h-16.14v-16.14Z"/></g></g><g class="cls-5" style="" transform="matrix(1.56302, 0, 0, 1.594954, -143.497937, -134.897596)"><path class="cls-8" d="M398.18,257.72c0,3.06-2.45,5.51-5.51,5.51s-5.51-2.45-5.51-5.51,2.45-5.51,5.51-5.51,5.51,2.45,5.51,5.51ZM396.17,256.44h-2.23v-2.23h-2.58v2.23h-2.22v2.58h2.22v2.2h2.58v-2.23h2.23v-2.55Z"/></g></svg>